<?xml version="1.0" encoding="UTF-8"?>
<svg id="Layer_1" data-name="Layer 1" xmlns="http://www.w3.org/2000/svg" viewBox="0 0 99.09 96.35">
  <defs>
    <style>
      .cls-1 {
        fill: #fff;
      }

      .cls-2 {
        fill: #384e77;
      }
    </style>
  </defs>
  <path class="cls-1" d="m4.44,43.33c0-.11,0-.21,0-.32H0s0,0,0,0c-.04,7.27,1.4,14.32,4.29,20.96,2.75,6.31,6.68,11.98,11.69,16.85,5.01,4.87,10.84,8.69,17.33,11.36,6.09,2.51,12.52,3.89,19.15,4.13v-4.32c-26.66-1.06-48.02-22.48-48.02-48.66Z"/>
  <path class="cls-1" d="m53.55,92.12h-2s0,4,0,4h2v-4Z"/>
  <polygon class="cls-1" points="52.46 96.32 53.1 96.32 53.07 96.12 52.46 96.12 52.46 96.32"/>
  <rect class="cls-1" x="52.46" y="91.99" width=".54" height=".13"/>
  <path class="cls-1" d="m94.59,45.49c-1.02,18.04-14.7,32.85-32.52,36.16v4.39c3.36-.56,6.64-1.49,9.81-2.79,5.31-2.18,10.07-5.31,14.16-9.29s7.3-8.61,9.55-13.77c2.04-4.68,3.19-9.62,3.45-14.71h-4.45Z"/>
  <polyline class="cls-1" points="99.04 44.09 99.04 45.49 94.59 45.49 94.64 44.09"/>
  <path class="cls-1" d="m86.04,12.69c-4.09-3.98-8.86-7.1-14.16-9.29-5.5-2.26-11.33-3.41-17.35-3.41s-11.85,1.15-17.35,3.41c-5.31,2.18-10.07,5.31-14.16,9.29-4.09,3.98-7.3,8.61-9.55,13.77-2.32,5.34-3.5,11.02-3.5,16.87s1.18,11.52,3.5,16.87c2.24,5.16,5.46,9.79,9.55,13.77,4.09,3.98,8.86,7.1,14.16,9.29,3.1,1.28,6.31,2.19,9.6,2.75v-4.4c-18.43-3.52-32.38-19.35-32.38-38.28C14.41,21.82,32.41,4.32,54.53,4.32c11.45,0,21.79,4.68,29.1,12.18l3.16-3.07c-.25-.25-.49-.5-.75-.74Z"/>
  <path class="cls-1" d="m94.65,43.33c0-.72-.02-1.44-.06-2.16h-31.9v4.32h31.9c.04-.71.06-1.43.06-2.16Z"/>
  <path class="cls-1" d="m93.62,43.33c0,.72-.03,1.44-.08,2.16h5.48c.04-.72.07-1.44.07-2.16s-.02-1.44-.07-2.16h-5.48c.05.71.08,1.43.08,2.16Z"/>
  <path class="cls-1" d="m52.46,21.98v60.31c.69.03,1.38.05,2.07.05.8,0,1.58-.02,2.37-.07V21.98h-4.44Z"/>
  <path class="cls-1" d="m54.53,86.66c-.69,0-1.38-.02-2.07-.05v5.38c.69.03,1.38.04,2.07.04.79,0,1.58-.02,2.37-.05v-5.38c-.79.04-1.58.06-2.37.06Z"/>
  <path class="cls-1" d="m54.53,91.19c-.69,0-1.38-.02-2.07-.05v5.17c.69.03,1.38.04,2.07.04.79,0,1.58-.02,2.37-.06v-5.17c-.79.04-1.57.07-2.37.07Z"/>
  <path class="cls-1" d="m56.9,87.04v-5.92c-.78.06-1.57.09-2.37.09-.69,0-1.39-.02-2.07-.07v5.91c.69.04,1.38.06,2.07.06.79,0,1.58-.03,2.37-.08Z"/>
  <path class="cls-2" d="m56.91,21.18v-4.33c-.78.04-1.57.07-2.37.07-.69,0-1.39-.02-2.07-.05v4.32c.69.03,1.38.05,2.07.05.79,0,1.58-.02,2.37-.06Z"/>
</svg>